<?xml version="1.0" encoding="UTF-8"?>
<svg id="Layer_1" data-name="Layer 1" xmlns="http://www.w3.org/2000/svg" viewBox="0 0 242.46576 267.43988">
  <defs>
    <style>
      .cls-1 {
        fill: #616161;
      }

      .cls-1, .cls-2, .cls-3, .cls-4, .cls-5, .cls-6, .cls-7 {
        stroke-width: 0px;
      }

      .cls-2 {
        fill: #c4c4c4;
      }

      .cls-3 {
        fill: #9e9e9e;
      }

      .cls-4 {
        fill: #fff;
      }

      .cls-5 {
        fill: #ed1c24;
      }

      .cls-6 {
        fill: #fcfcfc;
      }

      .cls-7 {
        fill: #e6e6e6;
      }
    </style>
  </defs>
  <g>
    <circle class="cls-2" cx="119.08163" cy="119.08163" r="119.08163"/>
    <g>
      <g>
        <rect class="cls-2" x="141.53585" y="111.86373" width="11.37109" height="86.31695" transform="translate(-65.20309 130.90039) rotate(-40)"/>
        <path class="cls-1" d="m170.48021,193.19449l-56.81225-67.70636,10.29454-8.63826,56.81222,67.70653-10.29452,8.63809Zm-53.89953-67.45152l54.15445,64.53888,7.12698-5.98037-54.15453-64.5388-7.1269,5.9803Z"/>
      </g>
      <g>
        <path class="cls-3" d="m202.51717,241.42578l-40.25111-47.9694c-1.41954-1.69173-1.19887-4.21392.49286-5.63346l14.0668-11.80344c1.69175-1.41954,4.21394-1.19889,5.63346.49286l40.25111,47.9694c3.32328,3.96053,2.80669,9.86522-1.15385,13.18851l-5.85076,4.90937c-3.96055,3.3233-9.86523,2.80669-13.18851-1.15384Z"/>
        <path class="cls-1" d="m209.6966,245.79899c-2.96906.00019-5.91802-1.26171-7.97124-3.70874l-40.25122-47.9694c-1.78355-2.12572-1.50539-5.30618.62034-7.08992l14.06673-11.80342c2.12572-1.78336,5.30618-1.50537,7.08992.62034l40.25104,47.9694c1.78483,2.12702,2.63447,4.8218,2.39244,7.58777-.242,2.76618-1.5467,5.27243-3.6737,7.05709l-5.8507,4.9094c-1.94384,1.63098-4.31507,2.42731-6.67359,2.42748Zm-30.30292-69.67997c-.67291,0-1.34915.22706-1.90362.69227l-14.06675,11.80342c-1.2523,1.05085-1.41628,2.92478-.36542,4.17728l40.25122,47.9694c1.42976,1.70386,3.43759,2.74901,5.65352,2.94288,2.21721.19552,4.37483-.4868,6.07869-1.91654l5.8507-4.9094c3.51748-2.95155,3.97789-8.21457,1.02634-11.73221l-40.25104-47.9694c-.58566-.69782-1.42699-1.05769-2.27365-1.05769Z"/>
      </g>
      <g>
        <circle class="cls-7" cx="116.27403" cy="118.14058" r="68.485"/>
        <path class="cls-1" d="m116.36155,187.66418c-2.04317,0-4.09233-.08965-6.14648-.26949-8.99418-.78673-17.61272-3.26015-25.61625-7.35092-8.28669-4.23576-15.54703-10.02855-21.57926-17.2175-6.0322-7.18897-10.47623-15.34487-13.20863-24.24121-2.63898-8.59223-3.57798-17.50931-2.79107-26.50349.7869-8.99418,3.26015-17.61263,7.35101-25.61615,4.23566-8.28669,10.02845-15.54704,17.21733-21.57926,7.18897-6.0322,15.34487-10.47623,24.24119-13.20863,8.59234-2.63889,17.50904-3.57798,26.50359-2.79115,8.99411.7869,17.61263,3.26014,25.61617,7.351,8.28669,4.23568,15.54704,10.02845,21.57924,17.21733,6.0322,7.18906,10.47623,15.34496,13.20863,24.24128,2.63907,8.59225,3.57816,17.50942,2.79126,26.5036-.78692,8.99418-3.26015,17.61261-7.35111,25.61615-4.23557,8.28669-10.02836,15.54704-17.21733,21.57924-7.18897,6.03222-15.34487,10.47623-24.24119,13.20863-6.62986,2.03626-13.45434,3.06056-20.35711,3.06056Zm-.20328-136.9807c-15.81607,0-30.98091,5.49894-43.24114,15.78647-28.49124,23.90705-32.22084,66.53613-8.31379,95.02747,13.32225,15.87685,32.46127,24.0643,51.72491,24.06522,15.3054.00074,30.68827-5.16655,43.30276-15.75143,13.80166-11.58095,22.26747-27.84351,23.83759-45.79183,1.57029-17.94834-3.94285-35.43387-15.52399-49.23573-11.58095-13.80166-27.84351-22.26737-45.79185-23.83767-2.0047-.17534-4.00583-.2625-5.99449-.2625Z"/>
      </g>
      <g>
        <circle class="cls-6" cx="116.27403" cy="118.14057" r="55.12023" transform="translate(-49.48213 116.82073) rotate(-45)"/>
        <path class="cls-1" d="m116.37058,174.29932c-1.65654,0-3.32082-.07231-4.99066-.21841-14.94227-1.30727-28.481-8.35512-38.12235-19.84531-9.64127-11.49002-14.2311-26.04697-12.92383-40.98915,1.30727-14.9422,8.35512-28.48093,19.84522-38.12228,11.49012-9.64137,26.0479-14.23129,40.98917-12.92392,14.94218,1.30736,28.48101,8.35512,38.12235,19.84531,9.64137,11.49012,14.2311,26.04697,12.92383,40.98917-1.30727,14.94218-8.35512,28.48101-19.84531,38.12235-10.20601,8.56393-22.8323,13.14224-35.99842,13.14224Zm-41.52925-21.39258c9.28637,11.06705,22.32669,17.85537,36.71873,19.11449,14.39222,1.26005,28.41303-3.16163,39.48008-12.44791,22.84594-19.17021,25.83659-53.35287,6.66658-76.1989-19.17021-22.84584-53.35287-25.83659-76.1989-6.66649-22.84594,19.17012-25.83649,53.35278-6.66649,76.19881Z"/>
      </g>
      <path class="cls-7" d="m212.10308,224.1017c-.50673,0-1.01066-.21157-1.36834-.62476l-32.78391-37.86377c-.65408-.75536-.57182-1.8979.18335-2.55181.75538-.65374,1.89792-.57201,2.55183.18335l32.78391,37.86375c.6541.75536.57182,1.89792-.18335,2.55183-.34217.29623-.76386.44141-1.18349.44141Z"/>
    </g>
    <g>
      <path class="cls-4" d="m241.43202,49.65321v29.47699c0,14.984-12.14641,27.12782-27.12782,27.12782h-4.19955l-12.05345,10.87106c-1.52526,1.37565-3.95911.29325-3.95911-1.76075v-9.11031h-29.93955c-14.98228,0-27.12784-12.14556-27.12784-27.12784v-29.47695c0-14.98143,12.14382-27.12782,27.12784-27.12782h50.15167c14.98228,0,27.12782,12.14552,27.12782,27.1278Z"/>
      <path class="cls-1" d="m196.47671,118.77988c-.46889,0-.94351-.09879-1.39708-.30048-1.24677-.5545-2.02132-1.74656-2.02132-3.1111v-8.07659h-28.90581c-15.52841,0-28.16152-12.63322-28.16152-28.16152v-29.47691c0-15.52839,12.63311-28.16162,28.16152-28.16162h50.15174c15.52839,0,28.16152,12.63322,28.16152,28.16152v29.47701c0,15.5283-12.63313,28.16152-28.16152,28.16152h-3.80228l-11.75841,10.60497c-.6445.58132-1.44708.8832-2.26683.8832Zm-32.32422-95.2208c-14.38827,0-26.0941,11.70585-26.0941,26.09419v29.47691c0,14.38834,11.70583,26.0941,26.0941,26.0941h30.97324v10.14401c0,.54405.2968,1.00088.79391,1.22195.49694.22117,1.0352.13568,1.43934-.22882l12.34833-11.13714h4.59693c14.38825,0,26.0941-11.70575,26.0941-26.0941v-29.47701c0-14.38834-11.70585-26.0941-26.0941-26.0941h-50.15174Z"/>
    </g>
    <g>
      <path class="cls-5" d="m201.05095,82.18364c-1.15544,0-2.31054-.44067-3.19208-1.32221l-23.64519-23.64529c-1.76288-1.76298-1.76288-4.6212,0-6.38418,1.76307-1.76288,4.62146-1.76269,6.38416,0l23.64521,23.64531c1.76288,1.76298,1.76288,4.62118,0,6.38416-.88137.88135-2.037,1.32221-3.1921,1.32221Z"/>
      <path class="cls-5" d="m177.40576,82.18364c-1.15527,0-2.31054-.44077-3.19208-1.32221-1.76288-1.76298-1.76288-4.62118,0-6.38416l23.64519-23.64531c1.76307-1.76288,4.6211-1.76288,6.38418,0,1.76288,1.76298,1.76288,4.6212,0,6.38418l-23.64521,23.64529c-.88154.88144-2.03681,1.32221-3.19208,1.32221Z"/>
    </g>
    <ellipse class="cls-2" cx="121.23287" cy="264.85554" rx="84.73996" ry="2.58435"/>
  </g>
  <path class="cls-1" d="m142.05388,102.9308c-.74791.05957-3.31591-1.13373-10.5143,2.98768-2.42882,1.39065-8.6104,7.03604-16.44257,14.20757l-25.54199,1.35671-6.15553,3.71578,22.55867,3.26111c-5.12475,4.63597-10.54963,9.44942-15.86302,13.90611l-16.74115-2.89065-3.05382,2.58601,17.07554,8.6771-.09884,7.85042,4.23479-2.63094.96842-5.67481c6.88988-3.44539,14.8706-8.17794,23.65313-14.66065l3.68127,18.84294,4.24481-4.75494.44958-20.49974c23.00833-18.27219,23.02731-24.04864,22.90374-25.60139-.13614-1.70951-4.61084-.7378-5.35874-.67832Z"/>
</svg>