<svg xmlns="http://www.w3.org/2000/svg" xmlns:xlink="http://www.w3.org/1999/xlink" width="500" zoomAndPan="magnify" viewBox="0 0 375 187.499995" height="250" preserveAspectRatio="xMidYMid meet" version="1.2"><defs/><g id="9add86705d"><g style="fill:#000000;fill-opacity:1;"><g transform="translate(0.0252148, 142.264157)"><path style="stroke:none" d="M 33.9375 1.1875 C 29.507812 1.1875 25.363281 0.347656 21.5 -1.328125 C 17.632812 -3.015625 14.238281 -5.539062 11.3125 -8.90625 C 8.394531 -12.28125 6.109375 -16.519531 4.453125 -21.625 C 2.796875 -26.726562 1.96875 -32.671875 1.96875 -39.453125 C 1.96875 -43.347656 2.335938 -47.238281 3.078125 -51.125 C 3.816406 -55.019531 4.945312 -58.703125 6.46875 -62.171875 C 8 -65.648438 9.894531 -68.726562 12.15625 -71.40625 C 14.414062 -74.09375 17.082031 -76.210938 20.15625 -77.765625 C 23.238281 -79.316406 26.722656 -80.09375 30.609375 -80.09375 C 32.660156 -80.09375 34.617188 -79.828125 36.484375 -79.296875 C 38.359375 -78.773438 40.28125 -78.25 42.25 -77.71875 C 44.226562 -77.195312 46.398438 -76.9375 48.765625 -76.9375 C 50.609375 -76.9375 52.066406 -77.195312 53.140625 -77.71875 C 54.222656 -78.25 55.144531 -78.773438 55.90625 -79.296875 C 56.664062 -79.828125 57.441406 -80.09375 58.234375 -80.09375 C 59.285156 -80.09375 59.890625 -79.5 60.046875 -78.3125 C 60.203125 -77.132812 60.082031 -75.660156 59.6875 -73.890625 C 59.289062 -72.128906 58.726562 -70.382812 58 -68.65625 C 57.625 -67.8125 57.144531 -66.863281 56.5625 -65.8125 C 55.988281 -64.757812 55.3125 -63.707031 54.53125 -62.65625 C 53.6875 -61.550781 52.65625 -60.378906 51.4375 -59.140625 C 50.226562 -57.898438 49.054688 -56.597656 47.921875 -55.234375 C 46.796875 -53.867188 45.851562 -52.472656 45.09375 -51.046875 C 44.332031 -49.628906 43.953125 -48.210938 43.953125 -46.796875 C 43.953125 -45.472656 44.367188 -44.328125 45.203125 -43.359375 C 46.046875 -42.390625 47.15625 -41.90625 48.53125 -41.90625 C 49.375 -41.90625 49.875 -42.035156 50.03125 -42.296875 C 50.1875 -42.554688 50.472656 -42.6875 50.890625 -42.6875 C 51.523438 -42.6875 51.972656 -42.160156 52.234375 -41.109375 C 52.492188 -40.054688 52.625 -39.132812 52.625 -38.34375 C 52.625 -36.394531 52.046875 -34.550781 50.890625 -32.8125 C 49.734375 -31.082031 48.195312 -29.675781 46.28125 -28.59375 C 44.363281 -27.519531 42.296875 -26.984375 40.078125 -26.984375 C 37.972656 -26.984375 36.023438 -27.492188 34.234375 -28.515625 C 32.453125 -29.546875 31.019531 -30.914062 29.9375 -32.625 C 28.863281 -34.332031 28.328125 -36.238281 28.328125 -38.34375 C 28.328125 -40.71875 28.878906 -42.769531 29.984375 -44.5 C 31.085938 -46.238281 32.441406 -47.738281 34.046875 -49 C 35.648438 -50.257812 37.265625 -51.335938 38.890625 -52.234375 C 40.523438 -53.128906 41.894531 -53.929688 43 -54.640625 C 44.101562 -55.347656 44.65625 -56.019531 44.65625 -56.65625 C 44.65625 -57.65625 43.921875 -58.285156 42.453125 -58.546875 C 39.765625 -58.972656 37.367188 -59.679688 35.265625 -60.671875 C 33.160156 -61.671875 31.1875 -62.707031 29.34375 -63.78125 C 27.507812 -64.863281 25.644531 -65.785156 23.75 -66.546875 C 21.851562 -67.316406 19.773438 -67.703125 17.515625 -67.703125 C 16.203125 -67.703125 15.125 -67.347656 14.28125 -66.640625 C 13.4375 -65.929688 12.773438 -65.050781 12.296875 -64 C 11.828125 -62.945312 11.5 -61.894531 11.3125 -60.84375 C 11.132812 -59.789062 11.046875 -58.894531 11.046875 -58.15625 C 11.046875 -54.894531 11.453125 -51.410156 12.265625 -47.703125 C 13.085938 -43.992188 14.285156 -40.347656 15.859375 -36.765625 C 17.441406 -33.191406 19.398438 -29.929688 21.734375 -26.984375 C 24.078125 -24.035156 26.785156 -21.679688 29.859375 -19.921875 C 32.941406 -18.160156 36.375 -17.28125 40.15625 -17.28125 C 42.945312 -17.28125 45.238281 -17.671875 47.03125 -18.453125 C 48.820312 -19.242188 50.28125 -20.21875 51.40625 -21.375 C 52.539062 -22.539062 53.460938 -23.703125 54.171875 -24.859375 C 54.878906 -26.015625 55.535156 -26.984375 56.140625 -27.765625 C 56.742188 -28.554688 57.441406 -28.953125 58.234375 -28.953125 C 58.703125 -28.953125 59.144531 -28.703125 59.5625 -28.203125 C 59.988281 -27.703125 60.203125 -26.535156 60.203125 -24.703125 C 60.203125 -22.171875 59.625 -19.40625 58.46875 -16.40625 C 57.3125 -13.414062 55.613281 -10.59375 53.375 -7.9375 C 51.144531 -5.28125 48.398438 -3.09375 45.140625 -1.375 C 41.878906 0.332031 38.144531 1.1875 33.9375 1.1875 Z M 33.9375 1.1875 "/></g></g><g style="fill:#000000;fill-opacity:1;"><g transform="translate(60.854081, 142.264157)"><path style="stroke:none" d="M 0.390625 -69.359375 C 0.285156 -69.410156 0.0625 -69.488281 -0.28125 -69.59375 C -0.625 -69.695312 -0.796875 -69.988281 -0.796875 -70.46875 C -0.796875 -70.882812 -0.660156 -71.144531 -0.390625 -71.25 C -0.128906 -71.351562 0.0234375 -71.429688 0.078125 -71.484375 C 0.710938 -71.804688 1.722656 -72.296875 3.109375 -72.953125 C 4.503906 -73.609375 6.097656 -74.34375 7.890625 -75.15625 C 9.679688 -75.96875 11.507812 -76.742188 13.375 -77.484375 C 15.238281 -78.222656 16.957031 -78.84375 18.53125 -79.34375 C 20.113281 -79.84375 21.378906 -80.09375 22.328125 -80.09375 C 23.484375 -80.09375 24.164062 -79.773438 24.375 -79.140625 C 24.59375 -78.515625 24.703125 -77.804688 24.703125 -77.015625 L 24.703125 -9.3125 C 24.703125 -7.050781 24.894531 -5.195312 25.28125 -3.75 C 25.675781 -2.300781 26.398438 -1.050781 27.453125 0 L 8.125 0 C 6.445312 0 5.300781 -0.578125 4.6875 -1.734375 C 4.082031 -2.890625 3.78125 -4.46875 3.78125 -6.46875 L 3.78125 -63.28125 C 3.78125 -63.59375 3.765625 -64.171875 3.734375 -65.015625 C 3.710938 -65.859375 3.460938 -66.710938 2.984375 -67.578125 C 2.515625 -68.453125 1.648438 -69.046875 0.390625 -69.359375 Z M 0.390625 -69.359375 "/></g></g><g style="fill:#000000;fill-opacity:1;"><g transform="translate(88.152043, 142.264157)"><path style="stroke:none" d="M 10.015625 -6.9375 C 7.285156 -9.726562 5.25 -12.875 3.90625 -16.375 C 2.5625 -19.875 1.914062 -23.476562 1.96875 -27.1875 C 2.019531 -30.894531 2.769531 -34.523438 4.21875 -38.078125 C 5.664062 -41.628906 7.8125 -44.820312 10.65625 -47.65625 C 13.550781 -50.550781 16.785156 -52.722656 20.359375 -54.171875 C 23.929688 -55.617188 27.5625 -56.34375 31.25 -56.34375 C 34.820312 -56.34375 38.304688 -55.671875 41.703125 -54.328125 C 45.097656 -52.984375 48.132812 -50.945312 50.8125 -48.21875 C 53.550781 -45.476562 55.585938 -42.359375 56.921875 -38.859375 C 58.265625 -35.359375 58.910156 -31.753906 58.859375 -28.046875 C 58.804688 -24.335938 58.054688 -20.707031 56.609375 -17.15625 C 55.171875 -13.613281 53.03125 -10.421875 50.1875 -7.578125 C 47.289062 -4.679688 44.050781 -2.492188 40.46875 -1.015625 C 36.894531 0.453125 33.269531 1.1875 29.59375 1.1875 C 26.007812 1.1875 22.519531 0.515625 19.125 -0.828125 C 15.738281 -2.171875 12.703125 -4.207031 10.015625 -6.9375 Z M 26.59375 -52.15625 C 24.851562 -51.894531 23.441406 -50.539062 22.359375 -48.09375 C 21.285156 -45.644531 20.628906 -42.488281 20.390625 -38.625 C 20.160156 -34.757812 20.382812 -30.507812 21.0625 -25.875 C 21.800781 -21.300781 22.867188 -17.210938 24.265625 -13.609375 C 25.660156 -10.003906 27.238281 -7.203125 29 -5.203125 C 30.757812 -3.203125 32.484375 -2.335938 34.171875 -2.609375 C 35.847656 -2.867188 37.210938 -4.207031 38.265625 -6.625 C 39.316406 -9.050781 39.972656 -12.207031 40.234375 -16.09375 C 40.503906 -19.988281 40.296875 -24.25 39.609375 -28.875 C 38.921875 -33.457031 37.878906 -37.550781 36.484375 -41.15625 C 35.097656 -44.757812 33.535156 -47.554688 31.796875 -49.546875 C 30.066406 -51.546875 28.332031 -52.414062 26.59375 -52.15625 Z M 26.59375 -52.15625 "/></g></g><g style="fill:#000000;fill-opacity:1;"><g transform="translate(148.034156, 142.264157)"><path style="stroke:none" d="M 0.390625 -55.234375 L 26.828125 -55.234375 C 25.773438 -54.179688 25.050781 -52.929688 24.65625 -51.484375 C 24.257812 -50.035156 24.0625 -48.179688 24.0625 -45.921875 L 24.0625 -20.28125 C 24.0625 -18.488281 24.375 -16.867188 25 -15.421875 C 25.632812 -13.972656 26.820312 -13.25 28.5625 -13.25 C 29.769531 -13.25 30.898438 -13.578125 31.953125 -14.234375 C 33.003906 -14.898438 33.859375 -16.046875 34.515625 -17.671875 C 35.179688 -19.304688 35.515625 -21.570312 35.515625 -24.46875 L 35.515625 -45.921875 C 35.515625 -48.179688 35.316406 -50.035156 34.921875 -51.484375 C 34.523438 -52.929688 33.800781 -54.179688 32.75 -55.234375 L 59.1875 -55.234375 C 58.132812 -54.179688 57.410156 -52.929688 57.015625 -51.484375 C 56.617188 -50.035156 56.421875 -48.179688 56.421875 -45.921875 L 56.421875 -9.3125 C 56.421875 -7.050781 56.617188 -5.195312 57.015625 -3.75 C 57.410156 -2.300781 58.132812 -1.050781 59.1875 0 L 39.84375 0 C 38.164062 0 37.023438 -0.585938 36.421875 -1.765625 C 35.816406 -2.953125 35.515625 -4.546875 35.515625 -6.546875 L 35.515625 -7.890625 C 35.515625 -8.835938 35.457031 -9.390625 35.34375 -9.546875 C 35.238281 -9.703125 35.109375 -9.78125 34.953125 -9.78125 C 34.328125 -9.78125 33.707031 -9.410156 33.09375 -8.671875 C 32.488281 -7.941406 31.78125 -7.035156 30.96875 -5.953125 C 30.15625 -4.878906 29.15625 -3.789062 27.96875 -2.6875 C 26.789062 -1.582031 25.289062 -0.660156 23.46875 0.078125 C 21.65625 0.816406 19.410156 1.1875 16.734375 1.1875 C 13.835938 1.1875 11.507812 0.625 9.75 -0.5 C 7.988281 -1.632812 6.632812 -3.132812 5.6875 -5 C 4.738281 -6.875 4.09375 -8.890625 3.75 -11.046875 C 3.40625 -13.203125 3.234375 -15.304688 3.234375 -17.359375 L 3.15625 -32.4375 L 3.15625 -45.921875 C 3.15625 -48.179688 2.957031 -50.035156 2.5625 -51.484375 C 2.164062 -52.929688 1.441406 -54.179688 0.390625 -55.234375 Z M 0.390625 -55.234375 "/></g></g><g style="fill:#000000;fill-opacity:1;"><g transform="translate(207.048411, 142.264157)"><path style="stroke:none" d="M 24.296875 1.1875 C 19.566406 1.1875 15.546875 -0.0625 12.234375 -2.5625 C 8.921875 -5.0625 6.378906 -8.398438 4.609375 -12.578125 C 2.847656 -16.765625 1.96875 -21.410156 1.96875 -26.515625 C 1.96875 -30.085938 2.398438 -33.632812 3.265625 -37.15625 C 4.140625 -40.6875 5.484375 -43.894531 7.296875 -46.78125 C 9.109375 -49.675781 11.421875 -52.003906 14.234375 -53.765625 C 17.054688 -55.535156 20.410156 -56.421875 24.296875 -56.421875 C 26.515625 -56.421875 28.367188 -56.101562 29.859375 -55.46875 C 31.359375 -54.84375 32.609375 -54.117188 33.609375 -53.296875 C 34.609375 -52.484375 35.421875 -51.757812 36.046875 -51.125 C 36.679688 -50.5 37.1875 -50.1875 37.5625 -50.1875 C 37.71875 -50.1875 37.96875 -50.273438 38.3125 -50.453125 C 38.65625 -50.640625 38.828125 -51.234375 38.828125 -52.234375 L 38.828125 -63.28125 C 38.828125 -63.59375 38.800781 -64.15625 38.75 -64.96875 C 38.695312 -65.789062 38.445312 -66.625 38 -67.46875 C 37.550781 -68.3125 36.691406 -68.941406 35.421875 -69.359375 C 35.316406 -69.410156 35.09375 -69.488281 34.75 -69.59375 C 34.414062 -69.695312 34.25 -69.988281 34.25 -70.46875 C 34.25 -70.882812 34.378906 -71.144531 34.640625 -71.25 C 34.898438 -71.351562 35.054688 -71.429688 35.109375 -71.484375 C 35.742188 -71.753906 36.757812 -72.21875 38.15625 -72.875 C 39.550781 -73.53125 41.15625 -74.265625 42.96875 -75.078125 C 44.78125 -75.890625 46.601562 -76.675781 48.4375 -77.4375 C 50.28125 -78.207031 51.988281 -78.84375 53.5625 -79.34375 C 55.144531 -79.84375 56.410156 -80.09375 57.359375 -80.09375 C 58.515625 -80.09375 59.195312 -79.773438 59.40625 -79.140625 C 59.625 -78.515625 59.734375 -77.804688 59.734375 -77.015625 L 59.734375 -9.3125 C 59.734375 -7.050781 59.929688 -5.195312 60.328125 -3.75 C 60.722656 -2.300781 61.445312 -1.050781 62.5 0 L 43.15625 0 C 41.476562 0 40.335938 -0.578125 39.734375 -1.734375 C 39.128906 -2.890625 38.828125 -4.46875 38.828125 -6.46875 L 38.828125 -7.265625 C 38.828125 -7.835938 38.65625 -8.03125 38.3125 -7.84375 C 37.96875 -7.664062 37.664062 -7.363281 37.40625 -6.9375 C 36.03125 -4.675781 34.59375 -2.96875 33.09375 -1.8125 C 31.601562 -0.65625 30.109375 0.128906 28.609375 0.546875 C 27.109375 0.972656 25.671875 1.1875 24.296875 1.1875 Z M 33.140625 -48.140625 C 30.929688 -48.140625 29.15625 -47.546875 27.8125 -46.359375 C 26.46875 -45.171875 25.425781 -43.601562 24.6875 -41.65625 C 23.957031 -39.71875 23.457031 -37.613281 23.1875 -35.34375 C 22.925781 -33.082031 22.796875 -30.875 22.796875 -28.71875 C 22.796875 -26.457031 22.863281 -24.144531 23 -21.78125 C 23.132812 -19.414062 23.476562 -17.242188 24.03125 -15.265625 C 24.582031 -13.296875 25.472656 -11.707031 26.703125 -10.5 C 27.941406 -9.289062 29.664062 -8.6875 31.875 -8.6875 C 33.457031 -8.6875 34.707031 -9.117188 35.625 -9.984375 C 36.539062 -10.847656 37.234375 -11.953125 37.703125 -13.296875 C 38.179688 -14.640625 38.488281 -16.003906 38.625 -17.390625 C 38.757812 -18.785156 38.828125 -20.035156 38.828125 -21.140625 L 38.828125 -36.53125 C 38.828125 -37.53125 38.757812 -38.6875 38.625 -40 C 38.488281 -41.320312 38.222656 -42.597656 37.828125 -43.828125 C 37.441406 -45.066406 36.863281 -46.09375 36.09375 -46.90625 C 35.332031 -47.726562 34.347656 -48.140625 33.140625 -48.140625 Z M 33.140625 -48.140625 "/></g></g><g style="fill:#16a34a;fill-opacity:1;"><g transform="translate(268.527721, 146.975672)"><path style="stroke:none" d="M 16.90625 0 L 54.609375 -43.90625 C 52.441406 -42.664062 49.390625 -42.046875 45.453125 -42.046875 C 40.910156 -42.046875 36.3125 -43 31.65625 -44.90625 C 27 -46.820312 22.625 -49.566406 18.53125 -53.140625 C 14.445312 -56.710938 11.113281 -61.445312 8.53125 -67.34375 C 5.945312 -73.238281 4.65625 -79.753906 4.65625 -86.890625 C 4.65625 -94.128906 6.023438 -100.617188 8.765625 -106.359375 C 11.503906 -112.097656 15.175781 -116.648438 19.78125 -120.015625 C 24.382812 -123.378906 29.425781 -125.9375 34.90625 -127.6875 C 40.394531 -129.445312 46.132812 -130.328125 52.125 -130.328125 C 66.507812 -130.328125 78.613281 -126.140625 88.4375 -117.765625 C 98.257812 -109.390625 103.171875 -99.097656 103.171875 -86.890625 C 103.171875 -76.546875 101.722656 -68.035156 98.828125 -61.359375 C 95.929688 -54.691406 90.660156 -46.1875 83.015625 -35.84375 L 52.90625 0 Z M 72.921875 -86.890625 C 72.921875 -92.472656 71.109375 -97.097656 67.484375 -100.765625 C 63.867188 -104.441406 59.21875 -106.28125 53.53125 -106.28125 C 47.84375 -106.28125 43.132812 -104.441406 39.40625 -100.765625 C 35.6875 -97.097656 33.828125 -92.472656 33.828125 -86.890625 C 33.828125 -81.203125 35.710938 -76.46875 39.484375 -72.6875 C 43.265625 -68.914062 47.945312 -67.03125 53.53125 -67.03125 C 58.90625 -67.03125 63.476562 -68.914062 67.25 -72.6875 C 71.03125 -76.46875 72.921875 -81.203125 72.921875 -86.890625 Z M 72.921875 -86.890625 "/></g></g></g></svg>