<svg xmlns="http://www.w3.org/2000/svg" xmlns:xlink="http://www.w3.org/1999/xlink" width="500" zoomAndPan="magnify" viewBox="0 0 375 374.999991" height="500" preserveAspectRatio="xMidYMid meet" version="1.0"><defs><g/></defs><g fill="#ffffff" fill-opacity="1"><g transform="translate(9.143408, 223.406025)"><g><path d="M 32.28125 1.125 C 28.070312 1.125 24.128906 0.328125 20.453125 -1.265625 C 16.773438 -2.867188 13.546875 -5.269531 10.765625 -8.46875 C 7.992188 -11.675781 5.816406 -15.707031 4.234375 -20.5625 C 2.660156 -25.414062 1.875 -31.070312 1.875 -37.53125 C 1.875 -41.226562 2.222656 -44.925781 2.921875 -48.625 C 3.628906 -52.332031 4.707031 -55.835938 6.15625 -59.140625 C 7.601562 -62.453125 9.398438 -65.382812 11.546875 -67.9375 C 13.703125 -70.488281 16.242188 -72.5 19.171875 -73.96875 C 22.097656 -75.445312 25.414062 -76.1875 29.125 -76.1875 C 31.070312 -76.1875 32.929688 -75.9375 34.703125 -75.4375 C 36.484375 -74.9375 38.3125 -74.4375 40.1875 -73.9375 C 42.070312 -73.4375 44.140625 -73.1875 46.390625 -73.1875 C 48.140625 -73.1875 49.523438 -73.4375 50.546875 -73.9375 C 51.578125 -74.4375 52.453125 -74.9375 53.171875 -75.4375 C 53.898438 -75.9375 54.640625 -76.1875 55.390625 -76.1875 C 56.390625 -76.1875 56.960938 -75.625 57.109375 -74.5 C 57.265625 -73.375 57.15625 -71.972656 56.78125 -70.296875 C 56.40625 -68.617188 55.867188 -66.953125 55.171875 -65.296875 C 54.816406 -64.503906 54.363281 -63.601562 53.8125 -62.59375 C 53.269531 -61.59375 52.625 -60.59375 51.875 -59.59375 C 51.070312 -58.539062 50.09375 -57.425781 48.9375 -56.25 C 47.789062 -55.082031 46.675781 -53.847656 45.59375 -52.546875 C 44.519531 -51.242188 43.617188 -49.914062 42.890625 -48.5625 C 42.171875 -47.207031 41.8125 -45.859375 41.8125 -44.515625 C 41.8125 -43.265625 42.210938 -42.175781 43.015625 -41.25 C 43.816406 -40.320312 44.863281 -39.859375 46.15625 -39.859375 C 46.957031 -39.859375 47.429688 -39.984375 47.578125 -40.234375 C 47.734375 -40.484375 48.015625 -40.609375 48.421875 -40.609375 C 49.015625 -40.609375 49.4375 -40.109375 49.6875 -39.109375 C 49.9375 -38.109375 50.0625 -37.234375 50.0625 -36.484375 C 50.0625 -34.628906 49.507812 -32.875 48.40625 -31.21875 C 47.3125 -29.570312 45.847656 -28.234375 44.015625 -27.203125 C 42.191406 -26.179688 40.226562 -25.671875 38.125 -25.671875 C 36.125 -25.671875 34.273438 -26.15625 32.578125 -27.125 C 30.878906 -28.101562 29.515625 -29.40625 28.484375 -31.03125 C 27.460938 -32.664062 26.953125 -34.484375 26.953125 -36.484375 C 26.953125 -38.734375 27.472656 -40.679688 28.515625 -42.328125 C 29.566406 -43.984375 30.851562 -45.410156 32.375 -46.609375 C 33.90625 -47.816406 35.445312 -48.84375 37 -49.6875 C 38.550781 -50.539062 39.851562 -51.304688 40.90625 -51.984375 C 41.957031 -52.660156 42.484375 -53.296875 42.484375 -53.890625 C 42.484375 -54.847656 41.785156 -55.453125 40.390625 -55.703125 C 37.835938 -56.097656 35.554688 -56.769531 33.546875 -57.71875 C 31.546875 -58.675781 29.671875 -59.664062 27.921875 -60.6875 C 26.171875 -61.71875 24.394531 -62.59375 22.59375 -63.3125 C 20.789062 -64.039062 18.8125 -64.40625 16.65625 -64.40625 C 15.40625 -64.40625 14.378906 -64.066406 13.578125 -63.390625 C 12.785156 -62.710938 12.160156 -61.875 11.703125 -60.875 C 11.253906 -59.875 10.941406 -58.875 10.765625 -57.875 C 10.597656 -56.875 10.515625 -56.023438 10.515625 -55.328125 C 10.515625 -52.222656 10.898438 -48.90625 11.671875 -45.375 C 12.441406 -41.84375 13.578125 -38.375 15.078125 -34.96875 C 16.585938 -31.570312 18.453125 -28.472656 20.671875 -25.671875 C 22.898438 -22.867188 25.476562 -20.628906 28.40625 -18.953125 C 31.332031 -17.273438 34.597656 -16.4375 38.203125 -16.4375 C 40.859375 -16.4375 43.035156 -16.8125 44.734375 -17.5625 C 46.441406 -18.3125 47.832031 -19.238281 48.90625 -20.34375 C 49.976562 -21.445312 50.851562 -22.546875 51.53125 -23.640625 C 52.207031 -24.742188 52.832031 -25.671875 53.40625 -26.421875 C 53.976562 -27.171875 54.640625 -27.546875 55.390625 -27.546875 C 55.847656 -27.546875 56.273438 -27.304688 56.671875 -26.828125 C 57.066406 -26.359375 57.265625 -25.25 57.265625 -23.5 C 57.265625 -21.09375 56.710938 -18.460938 55.609375 -15.609375 C 54.515625 -12.753906 52.90625 -10.0625 50.78125 -7.53125 C 48.65625 -5.007812 46.039062 -2.9375 42.9375 -1.3125 C 39.832031 0.3125 36.28125 1.125 32.28125 1.125 Z M 32.28125 1.125 "/></g></g></g><g fill="#ffffff" fill-opacity="1"><g transform="translate(67.013739, 223.406025)"><g><path d="M 0.375 -65.984375 C 0.269531 -66.035156 0.0546875 -66.109375 -0.265625 -66.203125 C -0.585938 -66.304688 -0.75 -66.582031 -0.75 -67.03125 C -0.75 -67.425781 -0.625 -67.675781 -0.375 -67.78125 C -0.125 -67.882812 0.0234375 -67.957031 0.078125 -68 C 0.671875 -68.300781 1.628906 -68.765625 2.953125 -69.390625 C 4.285156 -70.015625 5.800781 -70.710938 7.5 -71.484375 C 9.207031 -72.265625 10.945312 -73.003906 12.71875 -73.703125 C 14.5 -74.410156 16.140625 -75 17.640625 -75.46875 C 19.140625 -75.945312 20.34375 -76.1875 21.25 -76.1875 C 22.34375 -76.1875 22.988281 -75.882812 23.1875 -75.28125 C 23.394531 -74.6875 23.5 -74.015625 23.5 -73.265625 L 23.5 -8.859375 C 23.5 -6.703125 23.6875 -4.9375 24.0625 -3.5625 C 24.4375 -2.1875 25.125 -1 26.125 0 L 7.734375 0 C 6.128906 0 5.039062 -0.546875 4.46875 -1.640625 C 3.894531 -2.742188 3.609375 -4.25 3.609375 -6.15625 L 3.609375 -60.203125 C 3.609375 -60.503906 3.59375 -61.050781 3.5625 -61.84375 C 3.539062 -62.644531 3.300781 -63.457031 2.84375 -64.28125 C 2.394531 -65.113281 1.570312 -65.679688 0.375 -65.984375 Z M 0.375 -65.984375 "/></g></g></g><g fill="#ffffff" fill-opacity="1"><g transform="translate(92.984006, 223.406025)"><g><path d="M 9.53125 -6.609375 C 6.925781 -9.253906 4.984375 -12.238281 3.703125 -15.5625 C 2.429688 -18.894531 1.820312 -22.328125 1.875 -25.859375 C 1.925781 -29.390625 2.640625 -32.84375 4.015625 -36.21875 C 5.390625 -39.59375 7.429688 -42.632812 10.140625 -45.34375 C 12.890625 -48.09375 15.960938 -50.15625 19.359375 -51.53125 C 22.765625 -52.90625 26.21875 -53.59375 29.71875 -53.59375 C 33.125 -53.59375 36.441406 -52.953125 39.671875 -51.671875 C 42.898438 -50.398438 45.789062 -48.460938 48.34375 -45.859375 C 50.945312 -43.253906 52.882812 -40.289062 54.15625 -36.96875 C 55.4375 -33.644531 56.050781 -30.21875 56 -26.6875 C 55.945312 -23.15625 55.234375 -19.703125 53.859375 -16.328125 C 52.484375 -12.953125 50.441406 -9.910156 47.734375 -7.203125 C 44.984375 -4.453125 41.90625 -2.375 38.5 -0.96875 C 35.101562 0.425781 31.65625 1.125 28.15625 1.125 C 24.75 1.125 21.429688 0.488281 18.203125 -0.78125 C 14.972656 -2.0625 12.082031 -4.003906 9.53125 -6.609375 Z M 25.296875 -49.609375 C 23.640625 -49.359375 22.296875 -48.070312 21.265625 -45.75 C 20.242188 -43.425781 19.617188 -40.421875 19.390625 -36.734375 C 19.171875 -33.054688 19.390625 -29.019531 20.046875 -24.625 C 20.742188 -20.269531 21.753906 -16.378906 23.078125 -12.953125 C 24.410156 -9.523438 25.910156 -6.859375 27.578125 -4.953125 C 29.253906 -3.054688 30.894531 -2.234375 32.5 -2.484375 C 34.101562 -2.734375 35.40625 -4.007812 36.40625 -6.3125 C 37.40625 -8.613281 38.03125 -11.613281 38.28125 -15.3125 C 38.53125 -19.019531 38.332031 -23.070312 37.6875 -27.46875 C 37.03125 -31.820312 36.039062 -35.710938 34.71875 -39.140625 C 33.394531 -42.566406 31.90625 -45.226562 30.25 -47.125 C 28.59375 -49.03125 26.941406 -49.859375 25.296875 -49.609375 Z M 25.296875 -49.609375 "/></g></g></g><g fill="#ffffff" fill-opacity="1"><g transform="translate(149.953626, 223.406025)"><g><path d="M 0.375 -52.546875 L 25.515625 -52.546875 C 24.515625 -51.546875 23.828125 -50.359375 23.453125 -48.984375 C 23.078125 -47.609375 22.890625 -45.84375 22.890625 -43.6875 L 22.890625 -19.296875 C 22.890625 -17.585938 23.191406 -16.046875 23.796875 -14.671875 C 24.398438 -13.296875 25.523438 -12.609375 27.171875 -12.609375 C 28.328125 -12.609375 29.40625 -12.921875 30.40625 -13.546875 C 31.40625 -14.171875 32.21875 -15.257812 32.84375 -16.8125 C 33.46875 -18.363281 33.78125 -20.515625 33.78125 -23.265625 L 33.78125 -43.6875 C 33.78125 -45.84375 33.59375 -47.609375 33.21875 -48.984375 C 32.84375 -50.359375 32.15625 -51.546875 31.15625 -52.546875 L 56.296875 -52.546875 C 55.296875 -51.546875 54.609375 -50.359375 54.234375 -48.984375 C 53.859375 -47.609375 53.671875 -45.84375 53.671875 -43.6875 L 53.671875 -8.859375 C 53.671875 -6.703125 53.859375 -4.9375 54.234375 -3.5625 C 54.609375 -2.1875 55.296875 -1 56.296875 0 L 37.90625 0 C 36.300781 0 35.210938 -0.5625 34.640625 -1.6875 C 34.066406 -2.8125 33.78125 -4.328125 33.78125 -6.234375 L 33.78125 -7.5 C 33.78125 -8.40625 33.726562 -8.929688 33.625 -9.078125 C 33.53125 -9.234375 33.40625 -9.3125 33.25 -9.3125 C 32.65625 -9.3125 32.066406 -8.957031 31.484375 -8.25 C 30.910156 -7.550781 30.234375 -6.6875 29.453125 -5.65625 C 28.679688 -4.632812 27.734375 -3.597656 26.609375 -2.546875 C 25.484375 -1.492188 24.054688 -0.617188 22.328125 0.078125 C 20.597656 0.773438 18.457031 1.125 15.90625 1.125 C 13.15625 1.125 10.941406 0.585938 9.265625 -0.484375 C 7.585938 -1.566406 6.296875 -2.992188 5.390625 -4.765625 C 4.492188 -6.546875 3.882812 -8.460938 3.5625 -10.515625 C 3.238281 -12.566406 3.078125 -14.566406 3.078125 -16.515625 L 3 -30.84375 L 3 -43.6875 C 3 -45.84375 2.8125 -47.609375 2.4375 -48.984375 C 2.0625 -50.359375 1.375 -51.546875 0.375 -52.546875 Z M 0.375 -52.546875 "/></g></g></g><g fill="#ffffff" fill-opacity="1"><g transform="translate(206.097607, 223.406025)"><g><path d="M 23.125 1.125 C 18.613281 1.125 14.78125 -0.0625 11.625 -2.4375 C 8.476562 -4.8125 6.066406 -7.988281 4.390625 -11.96875 C 2.710938 -15.945312 1.875 -20.363281 1.875 -25.21875 C 1.875 -28.625 2.285156 -32.003906 3.109375 -35.359375 C 3.941406 -38.710938 5.21875 -41.765625 6.9375 -44.515625 C 8.664062 -47.265625 10.867188 -49.476562 13.546875 -51.15625 C 16.222656 -52.832031 19.414062 -53.671875 23.125 -53.671875 C 25.21875 -53.671875 26.976562 -53.367188 28.40625 -52.765625 C 29.832031 -52.171875 31.019531 -51.484375 31.96875 -50.703125 C 32.925781 -49.929688 33.703125 -49.242188 34.296875 -48.640625 C 34.898438 -48.035156 35.378906 -47.734375 35.734375 -47.734375 C 35.878906 -47.734375 36.113281 -47.820312 36.4375 -48 C 36.769531 -48.175781 36.9375 -48.738281 36.9375 -49.6875 L 36.9375 -60.203125 C 36.9375 -60.503906 36.910156 -61.039062 36.859375 -61.8125 C 36.804688 -62.59375 36.566406 -63.378906 36.140625 -64.171875 C 35.710938 -64.972656 34.898438 -65.578125 33.703125 -65.984375 C 33.597656 -66.035156 33.382812 -66.109375 33.0625 -66.203125 C 32.738281 -66.304688 32.578125 -66.582031 32.578125 -67.03125 C 32.578125 -67.425781 32.703125 -67.675781 32.953125 -67.78125 C 33.203125 -67.882812 33.351562 -67.957031 33.40625 -68 C 34 -68.25 34.957031 -68.6875 36.28125 -69.3125 C 37.613281 -69.945312 39.144531 -70.648438 40.875 -71.421875 C 42.601562 -72.191406 44.34375 -72.941406 46.09375 -73.671875 C 47.84375 -74.398438 49.46875 -75 50.96875 -75.46875 C 52.46875 -75.945312 53.671875 -76.1875 54.578125 -76.1875 C 55.671875 -76.1875 56.316406 -75.882812 56.515625 -75.28125 C 56.722656 -74.6875 56.828125 -74.015625 56.828125 -73.265625 L 56.828125 -8.859375 C 56.828125 -6.703125 57.015625 -4.9375 57.390625 -3.5625 C 57.765625 -2.1875 58.453125 -1 59.453125 0 L 41.0625 0 C 39.457031 0 38.367188 -0.546875 37.796875 -1.640625 C 37.222656 -2.742188 36.9375 -4.25 36.9375 -6.15625 L 36.9375 -6.90625 C 36.9375 -7.457031 36.769531 -7.644531 36.4375 -7.46875 C 36.113281 -7.289062 35.828125 -7.003906 35.578125 -6.609375 C 34.273438 -4.453125 32.910156 -2.820312 31.484375 -1.71875 C 30.054688 -0.625 28.628906 0.117188 27.203125 0.515625 C 25.785156 0.921875 24.425781 1.125 23.125 1.125 Z M 31.53125 -45.78125 C 29.425781 -45.78125 27.734375 -45.21875 26.453125 -44.09375 C 25.179688 -42.96875 24.191406 -41.476562 23.484375 -39.625 C 22.785156 -37.78125 22.3125 -35.78125 22.0625 -33.625 C 21.8125 -31.476562 21.6875 -29.378906 21.6875 -27.328125 C 21.6875 -25.171875 21.75 -22.96875 21.875 -20.71875 C 22 -18.46875 22.320312 -16.398438 22.84375 -14.515625 C 23.375 -12.640625 24.226562 -11.125 25.40625 -9.96875 C 26.582031 -8.820312 28.222656 -8.25 30.328125 -8.25 C 31.828125 -8.25 33.015625 -8.660156 33.890625 -9.484375 C 34.765625 -10.316406 35.425781 -11.367188 35.875 -12.640625 C 36.332031 -13.921875 36.625 -15.222656 36.75 -16.546875 C 36.875 -17.878906 36.9375 -19.066406 36.9375 -20.109375 L 36.9375 -34.75 C 36.9375 -35.707031 36.875 -36.8125 36.75 -38.0625 C 36.625 -39.3125 36.367188 -40.523438 35.984375 -41.703125 C 35.609375 -42.878906 35.054688 -43.851562 34.328125 -44.625 C 33.609375 -45.394531 32.675781 -45.78125 31.53125 -45.78125 Z M 31.53125 -45.78125 "/></g></g></g><g fill="#16a34a" fill-opacity="1"><g transform="translate(264.586775, 227.888389)"><g><path d="M 16.09375 0 L 51.953125 -41.78125 C 49.890625 -40.59375 46.988281 -40 43.25 -40 C 38.914062 -40 34.535156 -40.910156 30.109375 -42.734375 C 25.679688 -44.554688 21.523438 -47.164062 17.640625 -50.5625 C 13.753906 -53.957031 10.578125 -58.457031 8.109375 -64.0625 C 5.648438 -69.664062 4.421875 -75.863281 4.421875 -82.65625 C 4.421875 -89.550781 5.722656 -95.726562 8.328125 -101.1875 C 10.941406 -106.644531 14.4375 -110.972656 18.8125 -114.171875 C 23.195312 -117.367188 27.992188 -119.800781 33.203125 -121.46875 C 38.421875 -123.144531 43.882812 -123.984375 49.59375 -123.984375 C 63.269531 -123.984375 74.78125 -120 84.125 -112.03125 C 93.476562 -104.0625 98.15625 -94.269531 98.15625 -82.65625 C 98.15625 -72.820312 96.773438 -64.726562 94.015625 -58.375 C 91.265625 -52.03125 86.25 -43.9375 78.96875 -34.09375 L 50.328125 0 Z M 69.375 -82.65625 C 69.375 -87.96875 67.648438 -92.367188 64.203125 -95.859375 C 60.765625 -99.359375 56.335938 -101.109375 50.921875 -101.109375 C 45.515625 -101.109375 41.035156 -99.359375 37.484375 -95.859375 C 33.941406 -92.367188 32.171875 -87.96875 32.171875 -82.65625 C 32.171875 -77.25 33.96875 -72.75 37.5625 -69.15625 C 41.15625 -65.5625 45.609375 -63.765625 50.921875 -63.765625 C 56.035156 -63.765625 60.390625 -65.5625 63.984375 -69.15625 C 67.578125 -72.75 69.375 -77.25 69.375 -82.65625 Z M 69.375 -82.65625 "/></g></g></g></svg>