<svg xmlns="http://www.w3.org/2000/svg" xmlns:xlink="http://www.w3.org/1999/xlink" width="500" zoomAndPan="magnify" viewBox="0 0 375 374.999991" height="500" preserveAspectRatio="xMidYMid meet" version="1.0"><defs><clipPath id="a3d98c1642"><path d="M 0 59 L 375 59 L 375 347 L 0 347 Z M 0 59 " clip-rule="nonzero"/></clipPath><clipPath id="3b7fbf7dd5"><path d="M -65.839844 231.6875 L 319.507812 -17.6875 L 460.085938 199.542969 L 74.738281 448.917969 Z M -65.839844 231.6875 " clip-rule="nonzero"/></clipPath><clipPath id="d996c530a3"><path d="M -65.839844 231.6875 L 319.507812 -17.6875 L 460.085938 199.542969 L 74.738281 448.917969 Z M -65.839844 231.6875 " clip-rule="nonzero"/></clipPath></defs><g clip-path="url(#a3d98c1642)"><g clip-path="url(#3b7fbf7dd5)"><g clip-path="url(#d996c530a3)"><path fill="#16a34a" d="M 338.082031 64.992188 C 351.300781 62.398438 365.472656 53.226562 372.953125 64.789062 C 390.621094 92.085938 288.273438 181.414062 284.070312 184.132812 L 299.46875 289.652344 C 300.910156 297.648438 298.257812 301.609375 294.386719 304.847656 L 282.984375 313.71875 L 246.289062 257.019531 L 209.074219 251.296875 C 206.441406 252.996094 192.898438 265.46875 161.410156 285.847656 C 124.652344 309.636719 113.660156 314.527344 111.035156 316.226562 L 118.394531 336.789062 C 119.90625 340.296875 111.992188 347.640625 109.066406 346.554688 L 73.84375 333.585938 C 70.175781 335.957031 60.050781 341.039062 58.003906 337.878906 C 55.292969 333.691406 55.84375 331.089844 57.265625 328.6875 L -6.769531 317.21875 C -11.082031 316.296875 -5.027344 304.933594 6.074219 303.6875 L 56.824219 296.914062 L 34.484375 268.164062 L 42.40625 260.828125 C 45.214844 258.257812 55.113281 258.566406 58.554688 259.296875 L 104.898438 271.03125 L 146.371094 231.519531 L 109.710938 223.234375 L -35.851562 225.050781 L -31.359375 212.449219 C -31.359375 212.449219 -30.609375 208.988281 -23.261719 204.234375 L 233.695312 151.195312 L 289.941406 97.660156 C 292.214844 95.429688 299.175781 81.996094 312.296875 73.503906 C 326.484375 64.324219 328.179688 66.9375 338.089844 64.988281 " fill-opacity="1" fill-rule="nonzero"/></g></g></g></svg>