<svg xmlns="http://www.w3.org/2000/svg" xmlns:xlink="http://www.w3.org/1999/xlink" width="500" zoomAndPan="magnify" viewBox="0 0 375 374.999991" height="500" preserveAspectRatio="xMidYMid meet" version="1.0"><defs><clipPath id="0bc9708bb7"><path d="M 14 93 L 370 93 L 370 278 L 14 278 Z M 14 93 " clip-rule="nonzero"/></clipPath><clipPath id="ff7332f2f4"><path d="M -10.503906 136.972656 L 345.28125 25.804688 L 407.914062 226.25 L 52.125 337.417969 Z M -10.503906 136.972656 " clip-rule="nonzero"/></clipPath><clipPath id="6cb1f0bb9d"><path d="M -10.503906 136.972656 L 345.28125 25.804688 L 407.914062 226.25 L 52.125 337.417969 Z M -10.503906 136.972656 " clip-rule="nonzero"/></clipPath></defs><g clip-path="url(#0bc9708bb7)"><g clip-path="url(#ff7332f2f4)"><g clip-path="url(#6cb1f0bb9d)"><path fill="#16a34a" d="M 342.078125 94.5 C 352.996094 95.347656 366.089844 91.257812 369.425781 101.941406 C 377.308594 127.164062 277.707031 174.796875 273.820312 176.007812 L 262.878906 261.980469 C 262.265625 268.554688 259.328125 271.078125 255.589844 272.769531 L 244.726562 277.230469 L 228.355469 224.839844 L 200.464844 212.246094 C 198.035156 213.003906 184.714844 219.820312 155.613281 228.910156 C 121.652344 239.523438 111.980469 240.957031 109.554688 241.714844 L 110.832031 259.421875 C 111.253906 262.496094 103.457031 266.519531 101.402344 265.03125 L 76.652344 247.199219 C 73.261719 248.257812 64.226562 250.03125 63.3125 247.109375 C 62.105469 243.238281 63.101562 241.324219 64.742188 239.75 L 17.101562 216.816406 C 13.925781 215.152344 21.144531 207.574219 30.105469 209.019531 L 71.316406 214.78125 L 60.097656 187.398438 L 67.898438 183.382812 C 70.65625 181.980469 78.339844 184.382812 80.871094 185.703125 L 114.601562 204.992188 L 155.683594 183.09375 L 128.785156 168.617188 L 14.421875 138.3125 L 20.6875 129.425781 C 20.6875 129.425781 22.027344 126.878906 28.816406 124.757812 L 241.558594 139.242188 L 297.265625 109.585938 C 299.535156 108.335938 307.914062 99.332031 320.039062 95.542969 C 333.148438 91.449219 333.902344 93.867188 342.085938 94.5 " fill-opacity="1" fill-rule="nonzero"/></g></g></g></svg>